<svg xmlns="http://www.w3.org/2000/svg" xml:space="preserve" style="enable-background:new 0 0 16 16" viewBox="0 0 16 16"><path d="M8 16c-.2 0-.3 0-.4-.1L.4 11.1c-.1-.1-.2-.1-.3-.2-.1-.2-.1-.3-.1-.5V5.6c0-.1 0-.3.1-.4.1-.2.2-.2.3-.3L7.6.1c.2-.1.6-.1.8 0l7.2 4.8c.1.1.2.1.3.2.1.2.1.3.1.5v4.9c0 .1 0 .3-.1.4l-.2.2-7.2 4.8c-.2 0-.3.1-.5.1zm.8-5.2v3.1l5.1-3.4L11.6 9l-2.8 1.8zm-6.7-.4 5.1 3.4v-3.1L4.4 8.9l-2.3 1.5zM5.8 8 8 9.5 10.2 8 8 6.5 5.8 8zM13 8l1.5 1V7L13 8zM1.5 7v2L3 8 1.5 7zm7.3-1.8 2.8 1.9 2.3-1.5-5.1-3.4v3zm-6.7.4 2.3 1.5 2.8-1.9v-3L2.1 5.6z"/></svg>
