<svg xmlns="http://www.w3.org/2000/svg" xml:space="preserve" style="enable-background:new 0 0 100 100" viewBox="0 0 100 100"><path d="M99.3 56.1c0 1.9-.7 3.6-2.1 5.1-1.5 1.5-3.2 2.3-5 2.3-3 0-5.2-1.4-6.7-4.2l-6.7-.2c-1.5 0-4.2.6-8.3 1.8-4.4 1.2-7 2.3-7.6 2.9-1 1.1-1.9 3.7-2.5 7.9-.6 3.4-.8 5.9-.8 7.4 0 2.5.5 4.4 1.2 5.5s2.5 2.1 5 2.9c2.5.8 4.1 1.2 4.6 1.4.3 0 1 0 1.8-.1H74c1.2 0 2.5.2 3.8.6 1.9.6 2.7 1.4 2.4 2.3-1.4-.2-3.6.1-6.9.9l3.9 1.9c0 1.1-1.6 1.7-4.7 1.7-.9 0-2-.2-3.5-.6-1.5-.3-2.4-.6-2.9-.6h-1.8c-.1.9-.3 2.4-.9 4.2-1.6-.1-3.5-1-5.6-2.8-2.1-1.8-3.5-2.7-4.1-2.7s-1.4.9-2.4 2.7c-1 1.8-1.6 3-1.6 3.6-1.2-.7-2.3-1.9-3.2-3.6-.3-1.2-.8-2.5-1.2-3.6-.9.1-2.7 2-5.2 5.9h-.7c-.2-.3-.9-2.3-2.1-5.9-2.9-.9-5.6-1.4-8.1-1.4-1.2 0-3 .2-5.6.8l-4.3-.2c.6-.6 2.3-1.7 5-3.3 3.2-1.9 5.6-2.8 7.3-2.8.2 0 .7 0 1.1.1.5.1.9.1 1.1.1.7 0 1.7-.3 3.2-1s2.3-1.4 2.5-1.9c.2-.6.3-2 .3-4.4 0-5.3-1.4-9.4-4.3-12-2.5-2.4-6.4-4.1-12.1-5.1-1.5 5.3-5.7 8-12.6 8-2.3 0-4.5-1.4-6.8-4.1S.6 60.4.6 58.2c0-3.5 1.5-6.3 4.4-8.6-2.4-2.5-3.5-5-3.5-7.4 0-2.4.7-4.4 2.1-6.2s3.4-2.8 5.7-3c-.2-3 .8-5.1 2.9-6.2-1-1-1.6-2.8-1.6-5.5 0-3 1-5.6 3-7.8 2-2 4.6-3.2 7.8-3.2 3.4 0 6.2 1.1 8.3 3.5C32.8 4.6 38.6 0 47.6 0c4.7 0 8.8 1.9 12.4 5.6 1.4 1.4 2 2.2 2 2.3-1.1 0-.6-.2 1.7-.7 2.3-.5 3.9-.7 5-.7 3.6 0 6.9 1.4 9.7 4.1 2.5 2.5 4.2 5.5 5.1 9.2.7.1 1.7.3 3 .8 2 1 3 2.8 3 5.3 0 .5-.3 1.4-1.1 2.7 6 3.4 9 8.1 9 14.1 0 1.7-.7 4.1-1.9 7 2.5 1.7 3.8 3.7 3.8 6.4zm-58.1 6.2v-1.8c0-2.1-1-4.2-3.2-5.9-2.1-1.8-4.3-2.7-6.4-2.7-2.6 0-5.1.6-7.3 1.8 5-.1 10.6 2.7 16.9 8.6zm-2.6-17.4c-1.4-1.6-2.6-3.3-3.6-5-3.9 1-5.9 2.3-5.9 3.5 1.1-.1 2.8.1 5 .7 2.1.5 3.6.8 4.5.8zm8.7-4.3v-6.2c-2.3-.3-3.6-.6-4.1-.6V36c-.1-.1 4.1 4.6 4.1 4.6zm18.3-4c-1.1-.5-3.3-1.4-6.3-2.8v12.1c4.3-2.5 6.5-5.7 6.3-9.3zm7.7 16.6-3.2-3.8-5.7 4.1c-1.9 1.4-3.6 2.9-5 4.6 4.4-2.4 9-4 13.9-4.9z" style="fill:#6c936c"/></svg>
